<svg xmlns="http://www.w3.org/2000/svg" width="22.531" height="22.531" viewBox="0 0 22.531 22.531"><defs><style>.a{fill:#2c3953;}</style></defs><path class="a" d="M4.812,10.73l5.922-5.921L8.793,2.867,6.078,5.581a.348.348,0,0,1-.493,0l-.493-.493a.348.348,0,0,1,0-.493L7.806,1.88,6.326.4A1.4,1.4,0,0,0,4.352.4L.4,4.347a1.4,1.4,0,0,0,0,1.974L4.812,10.73ZM21.907,5.59a2.114,2.114,0,0,0,0-2.989L19.916.609a2.115,2.115,0,0,0-2.99,0L14.9,2.634l4.981,4.981L21.907,5.59Zm-8-1.96L.835,16.7.009,21.426a.934.934,0,0,0,1.082,1.081l4.728-.829L18.886,8.611Zm8.213,12.56-1.48-1.48-2.714,2.714a.348.348,0,0,1-.493,0l-.493-.493a.349.349,0,0,1,0-.493l2.714-2.714-1.942-1.942L11.786,17.7l4.41,4.409a1.4,1.4,0,0,0,1.974,0l3.948-3.947a1.4,1.4,0,0,0,0-1.974Z" transform="translate(0.005 0.01)"/></svg>