<svg xmlns="http://www.w3.org/2000/svg" width="25.265" height="22.107" viewBox="0 0 25.265 22.107"><defs><style>.a{fill:#2c3953;}</style></defs><path class="a" d="M23.686,38.316H1.579A1.579,1.579,0,0,1,0,36.737V33.579A1.579,1.579,0,0,1,1.579,32H23.686a1.579,1.579,0,0,1,1.579,1.579v3.158A1.579,1.579,0,0,1,23.686,38.316Zm-2.369-4.342A1.184,1.184,0,1,0,22.5,35.158,1.184,1.184,0,0,0,21.317,33.974Zm-3.158,0a1.184,1.184,0,1,0,1.184,1.184A1.184,1.184,0,0,0,18.159,33.974Zm5.527,12.238H1.579A1.579,1.579,0,0,1,0,44.632V41.474A1.579,1.579,0,0,1,1.579,39.9H23.686a1.579,1.579,0,0,1,1.579,1.579v3.158A1.579,1.579,0,0,1,23.686,46.211Zm-2.369-4.342A1.184,1.184,0,1,0,22.5,43.053,1.184,1.184,0,0,0,21.317,41.869Zm-3.158,0a1.184,1.184,0,1,0,1.184,1.184A1.184,1.184,0,0,0,18.159,41.869Zm5.527,12.238H1.579A1.579,1.579,0,0,1,0,52.528V49.37a1.579,1.579,0,0,1,1.579-1.579H23.686a1.579,1.579,0,0,1,1.579,1.579v3.158A1.579,1.579,0,0,1,23.686,54.107Zm-2.369-4.342A1.184,1.184,0,1,0,22.5,50.949,1.184,1.184,0,0,0,21.317,49.764Zm-3.158,0a1.184,1.184,0,1,0,1.184,1.184A1.184,1.184,0,0,0,18.159,49.764Z" transform="translate(0 -32)"/></svg>